<?xml version="1.0" encoding="UTF-8" standalone="no"?>
<svg viewBox="0 0 50 50"
 xmlns="http://www.w3.org/2000/svg" xmlns:xlink="http://www.w3.org/1999/xlink"  version="1.2" baseProfile="tiny">
<title>Qt SVG Document</title>
<desc>Generated with Qt</desc>
<defs>
</defs>
<g fill="none" stroke="black" stroke-width="1" fill-rule="evenodd" stroke-linecap="square" stroke-linejoin="bevel" >

<g fill="#000000" fill-opacity="1" stroke="none" transform="matrix(-2.27273,0,0,-2.27273,50,0)"
font-family="FuraCode Nerd Font" font-size="10" font-weight="400" font-style="normal" 
opacity="0.00100002" >
<rect x="0" y="-22" width="22" height="22"/>
</g>

<g fill="#00cc99" fill-opacity="1" stroke="none" transform="matrix(2.27273,0,0,2.27273,50,0)"
font-family="FuraCode Nerd Font" font-size="10" font-weight="400" font-style="normal" 
>
<path vector-effect="none" fill-rule="evenodd" d="M-9.37472,9.7811 C-9.37472,10.0057 -9.55723,10.1873 -9.78138,10.1873 C-10.0059,10.1873 -10.1876,10.0056 -10.1876,9.7811 C-10.1876,9.55695 -10.0059,9.37475 -9.78138,9.37475 C-9.55723,9.37475 -9.37472,9.55695 -9.37472,9.7811 M-11,9.7811 C-11,10.0057 -11.1817,10.1873 -11.4063,10.1873 C-11.6304,10.1873 -11.8127,10.0056 -11.8127,9.7811 C-11.8127,9.55695 -11.6304,9.37475 -11.4063,9.37475 C-11.1817,9.37475 -11,9.55695 -11,9.7811 M-6.1249,13.4373 L-7.44537,13.4373 C-7.61355,13.4373 -7.75002,13.574 -7.75002,13.7422 L-7.75002,15.8752 C-7.75002,16.7724 -8.47757,17.5 -9.37472,17.5 L-15.8752,17.5 C-16.7726,17.5 -17.5,16.7724 -17.5,15.8752 L-17.5,12.0156 C-17.5,11.4546 -17.0454,11 -16.4841,11 L-8.86673,11 C-8.69895,11 -8.56207,10.8638 -8.56207,10.6953 L-8.56207,9.37475 C-8.56207,8.92604 -8.92625,8.56263 -9.37472,8.56263 L-15.8752,8.56263 C-16.3239,8.56263 -16.6872,8.92604 -16.6872,9.37475 L-16.6872,9.7811 C-16.6872,10.0057 -16.8696,10.1873 -17.0937,10.1873 C-17.3182,10.1873 -17.5,10.0056 -17.5,9.7811 L-17.5,9.37475 C-17.5,8.47744 -16.7726,7.75002 -15.8752,7.75002 L-13.6406,7.75002 L-13.4374,7.75002 L-12.6247,7.75002 L-12.4216,7.75002 L-9.37472,7.75002 C-8.47757,7.75002 -7.75002,8.47742 -7.75002,9.37475 L-7.75002,10.7968 C-7.75002,11.358 -8.20464,11.8125 -8.76519,11.8125 L-16.3826,11.8125 C-16.5511,11.8125 -16.6872,11.9487 -16.6872,12.1173 L-16.6872,15.8752 C-16.6872,16.3237 -16.3239,16.6877 -15.8752,16.6877 L-9.37472,16.6877 C-8.92625,16.6877 -8.56207,16.3237 -8.56207,15.8752 L-8.56207,13.6406 C-8.56207,13.2562 -8.34628,12.9257 -8.03166,12.7535 C-8.01619,12.7506 -8.00272,12.7422 -7.99195,12.7317 C-7.85708,12.6652 -7.70712,12.6251 -7.54686,12.6251 L-6.12485,12.6251 C-5.67618,12.6251 -5.312,12.2611 -5.312,11.8124 L-5.312,6.12482 C-5.312,5.67612 -5.67618,5.3126 -6.12485,5.3126 L-11.8127,5.3126 C-12.2612,5.3126 -12.6247,5.67612 -12.6247,6.12482 L-12.6247,6.53107 C-12.6247,6.75563 -12.8069,6.93742 -13.031,6.93742 C-13.2556,6.93742 -13.4374,6.7556 -13.4374,6.53107 L-13.4374,6.12483 C-13.4374,5.22749 -12.71,4.5 -11.8127,4.5 L-6.1249,4.5 C-5.22754,4.5 -4.5,5.22749 -4.5,6.12482 L-4.5,11.8125 C-4.5,12.7099 -5.22754,13.4373 -6.1249,13.4373 "/>
</g>

<g fill="none" stroke="#000000" stroke-opacity="1" stroke-width="1" stroke-linecap="square" stroke-linejoin="bevel" transform="matrix(1,0,0,1,0,0)"
font-family="FuraCode Nerd Font" font-size="10" font-weight="400" font-style="normal" 
>
</g>
</g>
</svg>
