<?xml version="1.0" encoding="UTF-8" standalone="no"?>
<svg viewBox="0 0 50 50"
 xmlns="http://www.w3.org/2000/svg" xmlns:xlink="http://www.w3.org/1999/xlink"  version="1.2" baseProfile="tiny">
<title>Qt SVG Document</title>
<desc>Generated with Qt</desc>
<defs>
</defs>
<g fill="none" stroke="black" stroke-width="1" fill-rule="evenodd" stroke-linecap="square" stroke-linejoin="bevel" >

<g fill="#050505" fill-opacity="1" stroke="none" transform="matrix(2.27273,0,0,2.27273,0,0)"
font-family="FuraCode Nerd Font" font-size="10" font-weight="400" font-style="normal" 
opacity="0.003" >
<rect x="0" y="0" width="22" height="22"/>
</g>

<g fill="#ff3333" fill-opacity="1" stroke="none" transform="matrix(2.27273,0,0,2.27273,0,0)"
font-family="FuraCode Nerd Font" font-size="10" font-weight="400" font-style="normal" 
>
<path vector-effect="none" fill-rule="evenodd" d="M15.9574,10.3686 C15.9541,10.3721 15.9534,10.3781 15.9473,10.3815 C15.606,10.7233 15.606,11.2773 15.9473,11.6186 C15.9517,11.623 15.9563,11.6286 15.9579,11.633 L17.4878,13.1627 C18.1701,13.845 18.1701,14.9518 17.4878,15.6341 L15.6342,17.4881 C14.9515,18.1706 13.8451,18.1706 13.1624,17.4881 L11.6321,15.958 C11.6281,15.9543 11.6226,15.954 11.6182,15.9477 C11.2767,15.6059 10.723,15.6059 10.3811,15.9477 C10.2102,16.1184 9.93346,16.1184 9.76263,15.9477 C9.592,15.7771 9.592,15.5002 9.76263,15.3289 L9.76163,15.3278 L9.90023,15.189 C9.90413,15.1846 9.91175,15.1799 9.91738,15.1747 C10.5151,14.5768 11.4846,14.5768 12.0821,15.1747 C12.0871,15.1798 12.0948,15.1853 12.1012,15.1905 L13.6259,16.7157 C14.0526,17.1419 14.7443,17.1419 15.171,16.7157 L16.7156,15.1704 C17.1419,14.7442 17.1419,14.0527 16.7156,13.6258 L15.1904,12.1015 C15.1857,12.0965 15.1805,12.0889 15.1749,12.0822 C14.5774,11.4845 14.5774,10.5154 15.1749,9.91748 C15.1839,9.91318 15.1848,9.90541 15.1891,9.90047 L16.7156,8.37369 C17.1419,7.94747 17.1419,7.25598 16.7156,6.8291 L15.171,5.28458 C14.7443,4.85791 14.0526,4.85791 13.6259,5.28458 L12.1021,6.80828 C12.0971,6.81478 12.0891,6.81808 12.0822,6.82515 C11.4847,7.42309 10.5152,7.42309 9.91747,6.82515 C9.91277,6.81845 9.90477,6.81535 9.89902,6.80978 L8.3737,5.28463 C7.94744,4.85796 7.25576,4.85796 6.82907,5.28463 L5.28448,6.82922 C4.85759,7.25611 4.85759,7.94759 5.28448,8.37382 L6.80944,9.899 C6.81494,9.9033 6.81874,9.91134 6.82481,9.91745 C7.42275,10.5154 7.42275,11.4845 6.82481,12.0822 C6.81771,12.0912 6.81404,12.0958 6.80816,12.1022 L5.28448,13.6259 C4.8576,14.0528 4.8576,14.7443 5.28448,15.1705 L6.67511,16.5618 L6.623,16.6136 C6.69625,16.6322 6.76737,16.6637 6.82482,16.7213 C6.99607,16.8919 6.99607,17.1689 6.82482,17.3395 C6.6542,17.5103 6.37721,17.5103 6.20659,17.3395 C6.14895,17.282 6.11797,17.2112 6.09942,17.1377 L6.05755,17.1796 L4.51208,15.6339 C3.82938,14.9516 3.82938,13.8448 4.51208,13.1625 L6.04174,11.6329 C6.04604,11.6285 6.04694,11.6228 6.05195,11.6185 C6.39342,11.2772 6.39342,10.7232 6.05195,10.3814 C6.04755,10.3779 6.04675,10.3719 6.04265,10.3685 L4.51203,8.83719 C3.82932,8.15489 3.82932,7.04806 4.51203,6.36579 L6.3657,4.51216 C7.04797,3.82945 8.1546,3.82945 8.83753,4.51216 L10.3668,6.0416 C10.3708,6.0457 10.3771,6.0468 10.3812,6.05181 C10.7231,6.39371 11.2768,6.39371 11.6183,6.05181 C11.623,6.04631 11.6289,6.04531 11.6335,6.04104 L13.1625,4.51203 C13.8453,3.82932 14.9517,3.82932 15.6344,4.51203 L17.488,6.36566 C18.1703,7.04793 18.1703,8.15476 17.488,8.83706 L15.9574,10.3686 M8.81342,16.2482 C9.05451,16.2482 9.25034,16.444 9.25034,16.6858 C9.25034,16.9269 9.05453,17.1231 8.81342,17.1231 C8.57168,17.1231 8.37606,16.9269 8.37606,16.6858 C8.37606,16.444 8.57168,16.2482 8.81342,16.2482 "/>
</g>

<g fill="none" stroke="#000000" stroke-opacity="1" stroke-width="1" stroke-linecap="square" stroke-linejoin="bevel" transform="matrix(1,0,0,1,0,0)"
font-family="FuraCode Nerd Font" font-size="10" font-weight="400" font-style="normal" 
>
</g>
</g>
</svg>
