<?xml version="1.0" encoding="UTF-8" standalone="no"?>
<svg viewBox="0 0 50 50"
 xmlns="http://www.w3.org/2000/svg" xmlns:xlink="http://www.w3.org/1999/xlink"  version="1.2" baseProfile="tiny">
<title>Qt SVG Document</title>
<desc>Generated with Qt</desc>
<defs>
</defs>
<g fill="none" stroke="black" stroke-width="1" fill-rule="evenodd" stroke-linecap="square" stroke-linejoin="bevel" >

<g fill="#000000" fill-opacity="1" stroke="none" transform="matrix(-2.27273,0,0,-2.27273,0,0)"
font-family="FuraCode Nerd Font" font-size="10" font-weight="400" font-style="normal" 
opacity="0.00100002" >
<rect x="-22" y="-22" width="22" height="22"/>
</g>

<g fill="#ffffff" fill-opacity="1" stroke="none" transform="matrix(2.27273,0,0,2.27273,0,0)"
font-family="FuraCode Nerd Font" font-size="10" font-weight="400" font-style="normal" 
opacity="0.5" >
<path vector-effect="none" fill-rule="evenodd" d="M17.9999,11.3576 C17.9999,12.3041 17.2162,13.0714 16.25,13.0714 L5.74967,13.0714 C5.26656,13.0714 4.87459,13.4554 4.87459,13.9288 L4.87459,14.7859 C4.87459,15.2593 5.26656,15.6433 5.74967,15.6433 L16.25,15.6433 C16.7332,15.6433 17.1246,15.2593 17.1246,14.7859 L17.1246,14.3574 C17.1246,14.1205 17.3207,13.9288 17.5621,13.9288 C17.8039,13.9288 17.9996,14.1205 17.9996,14.3574 L17.9996,14.7859 C17.9996,15.7327 17.2162,16.5 16.25,16.5 L5.74967,16.5 C4.78334,16.5 4,15.7327 4,14.7859 L4,13.9288 C4,12.9821 4.78334,12.2147 5.74967,12.2147 L5.85166,12.2147 L16.25,12.2147 C16.7332,12.2147 17.1246,11.8307 17.1246,11.3576 L17.128,11.3576 C17.1288,11.0263 17.0006,10.6948 16.7428,10.4421 L11.9338,5.73204 C11.4196,5.22855 10.5863,5.22855 10.0727,5.73204 L5.84442,9.87378 C5.7644,9.95459 5.65312,10.005 5.52942,10.005 C5.28663,10.005 5.0899,9.81225 5.0899,9.57432 C5.0899,9.44456 5.14981,9.32968 5.24297,9.25058 L9.4527,5.12665 C9.88006,4.70799 10.4399,4.50081 11,4.5 C11.5622,4.4992 12.1248,4.70636 12.5539,5.12665 L17.3604,9.83529 C17.7731,10.2394 17.9855,10.7645 18,11.294 C17.9996,11.3125 17.9996,11.3325 17.9996,11.3576 L17.9999,11.3576 M4.43706,11.3576 C4.19567,11.3576 4,11.1652 4,10.9288 C4,10.6919 4.19567,10.5003 4.43706,10.5003 C4.67889,10.5003 4.87456,10.6919 4.87456,10.9288 C4.87456,11.1652 4.67889,11.3576 4.43706,11.3576 "/>
</g>

<g fill="none" stroke="#000000" stroke-opacity="1" stroke-width="1" stroke-linecap="square" stroke-linejoin="bevel" transform="matrix(1,0,0,1,0,0)"
font-family="FuraCode Nerd Font" font-size="10" font-weight="400" font-style="normal" 
>
</g>
</g>
</svg>
