<?xml version="1.0" encoding="UTF-8" standalone="no"?>
<svg viewBox="0 0 50 50"
 xmlns="http://www.w3.org/2000/svg" xmlns:xlink="http://www.w3.org/1999/xlink"  version="1.2" baseProfile="tiny">
<title>Qt SVG Document</title>
<desc>Generated with Qt</desc>
<defs>
</defs>
<g fill="none" stroke="black" stroke-width="1" fill-rule="evenodd" stroke-linecap="square" stroke-linejoin="bevel" >

<g fill="#000000" fill-opacity="1" stroke="none" transform="matrix(-2.27273,0,0,-2.27273,0,0)"
font-family="FuraCode Nerd Font" font-size="10" font-weight="400" font-style="normal" 
opacity="0.00100002" >
<rect x="-22" y="-22" width="22" height="22"/>
</g>

<g fill="#ffffff" fill-opacity="1" stroke="none" transform="matrix(2.27273,0,0,2.27273,0,0)"
font-family="FuraCode Nerd Font" font-size="10" font-weight="400" font-style="normal" 
>
<path vector-effect="none" fill-rule="evenodd" d="M12.6253,9.7811 C12.6253,10.0057 12.4428,10.1873 12.2186,10.1873 C11.9941,10.1873 11.8124,10.0056 11.8124,9.7811 C11.8124,9.55695 11.9941,9.37475 12.2186,9.37475 C12.4428,9.37475 12.6253,9.55695 12.6253,9.7811 M11,9.7811 C11,10.0057 10.8183,10.1873 10.5937,10.1873 C10.3696,10.1873 10.1873,10.0056 10.1873,9.7811 C10.1873,9.55695 10.3696,9.37475 10.5937,9.37475 C10.8183,9.37475 11,9.55695 11,9.7811 M15.8751,13.4373 L14.5546,13.4373 C14.3865,13.4373 14.25,13.574 14.25,13.7422 L14.25,15.8752 C14.25,16.7724 13.5224,17.5 12.6253,17.5 L6.12482,17.5 C5.22744,17.5 4.5,16.7724 4.5,15.8752 L4.5,12.0156 C4.5,11.4546 4.95462,11 5.51588,11 L13.1333,11 C13.301,11 13.4379,10.8638 13.4379,10.6953 L13.4379,9.37475 C13.4379,8.92604 13.0738,8.56263 12.6253,8.56263 L6.12482,8.56263 C5.67614,8.56263 5.31275,8.92604 5.31275,9.37475 L5.31275,9.7811 C5.31275,10.0057 5.13037,10.1873 4.90633,10.1873 C4.6818,10.1873 4.5,10.0056 4.5,9.7811 L4.5,9.37475 C4.5,8.47744 5.22744,7.75002 6.12482,7.75002 L8.35938,7.75002 L8.56258,7.75002 L9.37525,7.75002 L9.57835,7.75002 L12.6253,7.75002 C13.5224,7.75002 14.25,8.47742 14.25,9.37475 L14.25,10.7968 C14.25,11.358 13.7954,11.8125 13.2348,11.8125 L5.61744,11.8125 C5.44892,11.8125 5.31275,11.9487 5.31275,12.1173 L5.31275,15.8752 C5.31275,16.3237 5.67614,16.6877 6.12482,16.6877 L12.6253,16.6877 C13.0738,16.6877 13.4379,16.3237 13.4379,15.8752 L13.4379,13.6406 C13.4379,13.2562 13.6537,12.9257 13.9683,12.7535 C13.9838,12.7506 13.9973,12.7422 14.008,12.7317 C14.1429,12.6652 14.2929,12.6251 14.4531,12.6251 L15.8751,12.6251 C16.3238,12.6251 16.688,12.2611 16.688,11.8124 L16.688,6.12482 C16.688,5.67612 16.3238,5.3126 15.8751,5.3126 L10.1873,5.3126 C9.73876,5.3126 9.37529,5.67612 9.37529,6.12482 L9.37529,6.53107 C9.37529,6.75563 9.19309,6.93742 8.96897,6.93742 C8.74441,6.93742 8.56262,6.7556 8.56262,6.53107 L8.56262,6.12483 C8.56258,5.22749 9.29004,4.5 10.1873,4.5 L15.8751,4.5 C16.7725,4.5 17.5,5.22749 17.5,6.12482 L17.5,11.8125 C17.5,12.7099 16.7725,13.4373 15.8751,13.4373 "/>
</g>

<g fill="none" stroke="#000000" stroke-opacity="1" stroke-width="1" stroke-linecap="square" stroke-linejoin="bevel" transform="matrix(1,0,0,1,0,0)"
font-family="FuraCode Nerd Font" font-size="10" font-weight="400" font-style="normal" 
>
</g>
</g>
</svg>
