<?xml version="1.0" encoding="UTF-8" standalone="no"?>
<svg viewBox="0 0 50 50"
 xmlns="http://www.w3.org/2000/svg" xmlns:xlink="http://www.w3.org/1999/xlink"  version="1.2" baseProfile="tiny">
<title>Qt SVG Document</title>
<desc>Generated with Qt</desc>
<defs>
</defs>
<g fill="none" stroke="black" stroke-width="1" fill-rule="evenodd" stroke-linecap="square" stroke-linejoin="bevel" >

<g fill="#000000" fill-opacity="1" stroke="none" transform="matrix(2.27273,0,0,2.27273,0,0)"
font-family="FuraCode Nerd Font" font-size="10" font-weight="400" font-style="normal" 
opacity="0.00100002" >
<rect x="0" y="0" width="22" height="22"/>
</g>

<g fill="#ffffff" fill-opacity="1" stroke="none" transform="matrix(2.27273,0,0,2.27273,0,0)"
font-family="FuraCode Nerd Font" font-size="10" font-weight="400" font-style="normal" 
>
<path vector-effect="none" fill-rule="evenodd" d="M4.00011,9.64242 C4.00011,8.69593 4.78378,7.92857 5.75,7.92857 L16.2503,7.92857 C16.7334,7.92857 17.1254,7.54457 17.1254,7.07121 L17.1254,6.21407 C17.1254,5.74072 16.7334,5.35672 16.2503,5.35672 L5.75,5.35672 C5.26678,5.35672 4.87543,5.74072 4.87543,6.21407 L4.87543,6.64264 C4.87543,6.87953 4.67932,7.07121 4.43794,7.07121 C4.19611,7.07121 4.00043,6.87953 4.00043,6.64264 L4.00043,6.21407 C4.00043,5.26735 4.78378,4.5 5.75,4.5 L16.2503,4.5 C17.2167,4.5 18,5.26735 18,6.21407 L18,7.07121 C18,8.01793 17.2167,8.78528 16.2503,8.78528 L16.1483,8.78528 L5.75,8.78528 C5.26678,8.78528 4.87543,9.16928 4.87543,9.64242 L4.8723,9.64242 C4.87145,9.97369 4.99961,10.3052 5.25747,10.5579 L10.0663,15.268 C10.5805,15.7715 11.4138,15.7715 11.9273,15.268 L16.1556,11.1262 C16.2356,11.0454 16.3469,10.995 16.4706,10.995 C16.7134,10.995 16.9101,11.1877 16.9101,11.4257 C16.9101,11.5554 16.8502,11.6703 16.7571,11.7494 L12.5473,15.8733 C12.12,16.292 11.5602,16.4992 11,16.5 C10.4378,16.5008 9.87522,16.2936 9.44609,15.8733 L4.6396,11.1647 C4.22687,10.7606 4.01455,10.2355 4,9.70604 C4.00043,9.68753 4.00043,9.66749 4.00043,9.64242 L4.00011,9.64242 M17.5629,9.64242 C17.8043,9.64242 18,9.83475 18,10.0712 C18,10.3081 17.8043,10.4997 17.5629,10.4997 C17.3211,10.4997 17.1254,10.3081 17.1254,10.0712 C17.1254,9.83475 17.3211,9.64242 17.5629,9.64242 "/>
</g>

<g fill="none" stroke="#000000" stroke-opacity="1" stroke-width="1" stroke-linecap="square" stroke-linejoin="bevel" transform="matrix(1,0,0,1,0,0)"
font-family="FuraCode Nerd Font" font-size="10" font-weight="400" font-style="normal" 
>
</g>
</g>
</svg>
